<?xml version="1.0" standalone="no"?>
<!DOCTYPE svg PUBLIC "-//W3C//DTD SVG 20010904//EN"
 "http://www.w3.org/TR/2001/REC-SVG-20010904/DTD/svg10.dtd">
<svg version="1.0" xmlns="http://www.w3.org/2000/svg"
 width="280.000000pt" height="280.000000pt" viewBox="0 0 280.000000 280.000000"
 preserveAspectRatio="xMidYMid meet">
<metadata>
Created by potrace 1.14, written by Peter Selinger 2001-2017
</metadata>
<g transform="translate(0.000000,280.000000) scale(0.100000,-0.100000)"
fill="#000000" stroke="none">
<path d="M1845 2585 c-127 -23 -276 -123 -315 -211 l-13 -31 -146 1 c-169 1
-215 -4 -336 -39 -86 -25 -88 -25 -109 -7 -182 162 -528 98 -685 -128 -121
-173 -87 -391 75 -486 31 -18 43 -31 40 -43 -34 -117 -46 -257 -31 -361 2 -14
6 -45 10 -70 l6 -45 -50 -24 c-28 -13 -75 -48 -104 -77 -174 -172 -171 -462 5
-581 68 -46 107 -58 188 -57 125 1 243 62 322 167 l33 43 80 -42 c90 -47 220
-91 304 -102 124 -16 334 -7 421 18 33 9 36 8 95 -51 72 -71 127 -111 210
-150 182 -86 384 -86 560 1 87 43 121 71 187 152 157 193 164 487 15 720 -55
88 -162 192 -242 237 -32 18 -55 38 -56 49 -6 117 -32 230 -75 328 -13 30 -24
56 -24 58 0 2 21 16 46 31 62 36 119 98 152 165 23 47 27 68 27 141 0 75 -4
93 -30 145 -92 185 -332 291 -560 249z m237 -192 c109 -51 167 -131 168 -229
0 -61 -14 -106 -49 -155 -36 -51 -76 -75 -146 -89 -69 -14 -104 -33 -101 -54
3 -23 13 -30 59 -41 40 -10 42 -13 64 -78 25 -71 40 -174 34 -223 -1 -7 -31
-11 -83 -11 -90 -1 -156 -22 -192 -61 -17 -20 -18 -23 -3 -46 20 -29 43 -34
122 -23 82 11 129 3 202 -34 200 -101 315 -347 247 -529 -25 -65 -55 -109
-107 -157 -171 -157 -426 -143 -603 34 -78 77 -111 154 -129 294 -11 86 -35
119 -85 119 -20 0 -29 -17 -36 -70 -11 -75 -10 -138 2 -215 7 -43 12 -80 11
-81 -1 -1 -31 -7 -67 -12 -64 -10 -232 -9 -280 2 -14 3 -38 8 -55 11 -46 9
-185 65 -228 92 -25 16 -40 33 -44 53 -7 38 -22 50 -50 39 -19 -7 -23 -16 -24
-56 0 -26 -2 -55 -4 -63 -16 -73 -82 -147 -166 -185 -240 -108 -419 170 -249
386 54 67 97 89 205 104 59 8 74 14 85 35 10 19 -3 28 -49 36 -23 4 -30 17
-52 99 -23 90 -30 223 -16 296 l10 48 41 -5 c46 -6 164 10 179 25 13 13 -1 49
-21 55 -9 3 -46 8 -82 12 -142 14 -230 87 -243 202 -12 105 62 225 175 283
138 71 304 41 382 -70 29 -40 36 -89 23 -156 -6 -28 10 -55 33 -55 10 0 32 17
47 37 25 32 28 44 27 107 -1 42 -8 87 -18 110 -9 22 -15 41 -13 43 2 1 39 13
83 24 61 17 110 22 214 23 187 1 186 2 193 -80 3 -45 14 -84 33 -122 37 -70
55 -83 84 -57 21 19 22 37 5 105 -15 62 -8 126 20 170 31 50 36 54 86 92 87
65 248 74 361 21z"/>
</g>
</svg>
